<mxfile host="app.diagrams.net" agent="Mozilla/5.0 (Windows NT 10.0; Win64; x64) AppleWebKit/537.36 (KHTML, like Gecko) Chrome/136.0.0.0 Safari/537.36" version="27.0.3">
  <diagram name="Page-1" id="f7fxL6I8i92bjEvk2cLi">
    <mxGraphModel dx="2493" dy="963" grid="1" gridSize="10" guides="1" tooltips="1" connect="1" arrows="1" fold="1" page="1" pageScale="1" pageWidth="850" pageHeight="1100" math="0" shadow="0" adaptiveColors="auto">
      <root>
        <mxCell id="0" />
        <mxCell id="1" parent="0" />
        <mxCell id="xRU164SG1fYUXlXQwHpl-3" value="" style="edgeStyle=orthogonalEdgeStyle;rounded=0;orthogonalLoop=1;jettySize=auto;html=1;labelBackgroundColor=none;fontColor=default;" edge="1" parent="1" source="xRU164SG1fYUXlXQwHpl-1" target="xRU164SG1fYUXlXQwHpl-2">
          <mxGeometry relative="1" as="geometry" />
        </mxCell>
        <mxCell id="xRU164SG1fYUXlXQwHpl-1" value="成绩信息" style="rounded=1;whiteSpace=wrap;html=1;labelBackgroundColor=none;" vertex="1" parent="1">
          <mxGeometry x="100" y="290" width="120" height="60" as="geometry" />
        </mxCell>
        <mxCell id="xRU164SG1fYUXlXQwHpl-5" value="" style="edgeStyle=orthogonalEdgeStyle;rounded=0;orthogonalLoop=1;jettySize=auto;html=1;labelBackgroundColor=none;fontColor=default;" edge="1" parent="1" source="xRU164SG1fYUXlXQwHpl-2" target="xRU164SG1fYUXlXQwHpl-4">
          <mxGeometry relative="1" as="geometry" />
        </mxCell>
        <mxCell id="xRU164SG1fYUXlXQwHpl-2" value="管理" style="rhombus;whiteSpace=wrap;html=1;rounded=1;labelBackgroundColor=none;" vertex="1" parent="1">
          <mxGeometry x="120" y="420" width="80" height="80" as="geometry" />
        </mxCell>
        <mxCell id="xRU164SG1fYUXlXQwHpl-7" value="" style="edgeStyle=orthogonalEdgeStyle;rounded=0;orthogonalLoop=1;jettySize=auto;html=1;labelBackgroundColor=none;fontColor=default;" edge="1" parent="1" source="xRU164SG1fYUXlXQwHpl-4" target="xRU164SG1fYUXlXQwHpl-6">
          <mxGeometry relative="1" as="geometry" />
        </mxCell>
        <mxCell id="xRU164SG1fYUXlXQwHpl-13" value="" style="edgeStyle=orthogonalEdgeStyle;rounded=0;orthogonalLoop=1;jettySize=auto;html=1;labelBackgroundColor=none;fontColor=default;" edge="1" parent="1" source="xRU164SG1fYUXlXQwHpl-4" target="xRU164SG1fYUXlXQwHpl-12">
          <mxGeometry relative="1" as="geometry" />
        </mxCell>
        <mxCell id="xRU164SG1fYUXlXQwHpl-15" value="" style="edgeStyle=orthogonalEdgeStyle;rounded=0;orthogonalLoop=1;jettySize=auto;html=1;labelBackgroundColor=none;fontColor=default;" edge="1" parent="1" source="xRU164SG1fYUXlXQwHpl-4" target="xRU164SG1fYUXlXQwHpl-14">
          <mxGeometry relative="1" as="geometry" />
        </mxCell>
        <mxCell id="xRU164SG1fYUXlXQwHpl-4" value="系统管理员" style="whiteSpace=wrap;html=1;rounded=1;labelBackgroundColor=none;" vertex="1" parent="1">
          <mxGeometry x="100" y="590" width="120" height="60" as="geometry" />
        </mxCell>
        <mxCell id="xRU164SG1fYUXlXQwHpl-9" value="" style="edgeStyle=orthogonalEdgeStyle;rounded=0;orthogonalLoop=1;jettySize=auto;html=1;labelBackgroundColor=none;fontColor=default;" edge="1" parent="1" source="xRU164SG1fYUXlXQwHpl-6" target="xRU164SG1fYUXlXQwHpl-8">
          <mxGeometry relative="1" as="geometry" />
        </mxCell>
        <mxCell id="xRU164SG1fYUXlXQwHpl-6" value="管理" style="rhombus;whiteSpace=wrap;html=1;rounded=1;labelBackgroundColor=none;" vertex="1" parent="1">
          <mxGeometry x="120" y="720" width="80" height="80" as="geometry" />
        </mxCell>
        <mxCell id="xRU164SG1fYUXlXQwHpl-11" value="" style="edgeStyle=orthogonalEdgeStyle;rounded=0;orthogonalLoop=1;jettySize=auto;html=1;labelBackgroundColor=none;fontColor=default;" edge="1" parent="1" source="xRU164SG1fYUXlXQwHpl-8" target="xRU164SG1fYUXlXQwHpl-10">
          <mxGeometry relative="1" as="geometry" />
        </mxCell>
        <mxCell id="xRU164SG1fYUXlXQwHpl-8" value="报名申请" style="whiteSpace=wrap;html=1;rounded=1;labelBackgroundColor=none;" vertex="1" parent="1">
          <mxGeometry x="100" y="890" width="120" height="60" as="geometry" />
        </mxCell>
        <mxCell id="xRU164SG1fYUXlXQwHpl-28" value="" style="edgeStyle=orthogonalEdgeStyle;rounded=0;orthogonalLoop=1;jettySize=auto;html=1;labelBackgroundColor=none;fontColor=default;" edge="1" parent="1" source="xRU164SG1fYUXlXQwHpl-10" target="xRU164SG1fYUXlXQwHpl-27">
          <mxGeometry relative="1" as="geometry" />
        </mxCell>
        <mxCell id="xRU164SG1fYUXlXQwHpl-10" value="包含" style="rhombus;whiteSpace=wrap;html=1;rounded=1;labelBackgroundColor=none;" vertex="1" parent="1">
          <mxGeometry x="120" y="1020" width="80" height="80" as="geometry" />
        </mxCell>
        <mxCell id="xRU164SG1fYUXlXQwHpl-12" value="管理" style="rhombus;whiteSpace=wrap;html=1;rounded=1;labelBackgroundColor=none;" vertex="1" parent="1">
          <mxGeometry x="320" y="580" width="80" height="80" as="geometry" />
        </mxCell>
        <mxCell id="xRU164SG1fYUXlXQwHpl-30" value="" style="edgeStyle=orthogonalEdgeStyle;rounded=0;orthogonalLoop=1;jettySize=auto;html=1;labelBackgroundColor=none;fontColor=default;" edge="1" parent="1" source="xRU164SG1fYUXlXQwHpl-14" target="xRU164SG1fYUXlXQwHpl-29">
          <mxGeometry relative="1" as="geometry" />
        </mxCell>
        <mxCell id="xRU164SG1fYUXlXQwHpl-14" value="管理" style="rhombus;whiteSpace=wrap;html=1;rounded=1;labelBackgroundColor=none;" vertex="1" parent="1">
          <mxGeometry x="-80" y="580" width="80" height="80" as="geometry" />
        </mxCell>
        <mxCell id="xRU164SG1fYUXlXQwHpl-18" value="" style="edgeStyle=orthogonalEdgeStyle;rounded=0;orthogonalLoop=1;jettySize=auto;html=1;labelBackgroundColor=none;fontColor=default;" edge="1" parent="1" source="xRU164SG1fYUXlXQwHpl-16" target="xRU164SG1fYUXlXQwHpl-17">
          <mxGeometry relative="1" as="geometry" />
        </mxCell>
        <mxCell id="xRU164SG1fYUXlXQwHpl-20" value="" style="edgeStyle=orthogonalEdgeStyle;rounded=0;orthogonalLoop=1;jettySize=auto;html=1;labelBackgroundColor=none;fontColor=default;" edge="1" parent="1" source="xRU164SG1fYUXlXQwHpl-16" target="xRU164SG1fYUXlXQwHpl-19">
          <mxGeometry relative="1" as="geometry" />
        </mxCell>
        <mxCell id="xRU164SG1fYUXlXQwHpl-16" value="学生" style="rounded=1;whiteSpace=wrap;html=1;labelBackgroundColor=none;" vertex="1" parent="1">
          <mxGeometry x="490" y="590" width="120" height="60" as="geometry" />
        </mxCell>
        <mxCell id="xRU164SG1fYUXlXQwHpl-17" value="提交" style="rhombus;whiteSpace=wrap;html=1;rounded=1;labelBackgroundColor=none;" vertex="1" parent="1">
          <mxGeometry x="510" y="710" width="80" height="80" as="geometry" />
        </mxCell>
        <mxCell id="xRU164SG1fYUXlXQwHpl-19" value="查看" style="rhombus;whiteSpace=wrap;html=1;rounded=1;labelBackgroundColor=none;" vertex="1" parent="1">
          <mxGeometry x="510" y="440" width="80" height="80" as="geometry" />
        </mxCell>
        <mxCell id="xRU164SG1fYUXlXQwHpl-21" value="" style="endArrow=classic;html=1;rounded=0;exitX=0;exitY=0.5;exitDx=0;exitDy=0;entryX=1;entryY=0.5;entryDx=0;entryDy=0;labelBackgroundColor=none;fontColor=default;" edge="1" parent="1" source="xRU164SG1fYUXlXQwHpl-16" target="xRU164SG1fYUXlXQwHpl-12">
          <mxGeometry width="50" height="50" relative="1" as="geometry">
            <mxPoint x="180" y="790" as="sourcePoint" />
            <mxPoint x="230" y="740" as="targetPoint" />
          </mxGeometry>
        </mxCell>
        <mxCell id="xRU164SG1fYUXlXQwHpl-22" value="" style="endArrow=classic;html=1;rounded=0;exitX=0.5;exitY=0;exitDx=0;exitDy=0;labelBackgroundColor=none;fontColor=default;" edge="1" parent="1" source="xRU164SG1fYUXlXQwHpl-19">
          <mxGeometry width="50" height="50" relative="1" as="geometry">
            <mxPoint x="550" y="450" as="sourcePoint" />
            <mxPoint x="220" y="320" as="targetPoint" />
            <Array as="points">
              <mxPoint x="550" y="320" />
            </Array>
          </mxGeometry>
        </mxCell>
        <mxCell id="xRU164SG1fYUXlXQwHpl-23" value="查看" style="rhombus;whiteSpace=wrap;html=1;rounded=1;labelBackgroundColor=none;" vertex="1" parent="1">
          <mxGeometry x="690" y="710" width="80" height="80" as="geometry" />
        </mxCell>
        <mxCell id="xRU164SG1fYUXlXQwHpl-24" value="" style="endArrow=classic;html=1;rounded=0;entryX=0.5;entryY=0;entryDx=0;entryDy=0;labelBackgroundColor=none;fontColor=default;" edge="1" parent="1" target="xRU164SG1fYUXlXQwHpl-23">
          <mxGeometry width="50" height="50" relative="1" as="geometry">
            <mxPoint x="610" y="620" as="sourcePoint" />
            <mxPoint x="660" y="570" as="targetPoint" />
            <Array as="points">
              <mxPoint x="730" y="620" />
            </Array>
          </mxGeometry>
        </mxCell>
        <mxCell id="xRU164SG1fYUXlXQwHpl-25" value="" style="endArrow=classic;html=1;rounded=0;exitX=0.5;exitY=1;exitDx=0;exitDy=0;entryX=1;entryY=0.5;entryDx=0;entryDy=0;labelBackgroundColor=none;fontColor=default;" edge="1" parent="1" source="xRU164SG1fYUXlXQwHpl-17" target="xRU164SG1fYUXlXQwHpl-8">
          <mxGeometry width="50" height="50" relative="1" as="geometry">
            <mxPoint x="550" y="880" as="sourcePoint" />
            <mxPoint x="600" y="830" as="targetPoint" />
            <Array as="points">
              <mxPoint x="550" y="920" />
            </Array>
          </mxGeometry>
        </mxCell>
        <mxCell id="xRU164SG1fYUXlXQwHpl-26" value="" style="endArrow=classic;html=1;rounded=0;entryX=1;entryY=0.5;entryDx=0;entryDy=0;exitX=0.5;exitY=1;exitDx=0;exitDy=0;labelBackgroundColor=none;fontColor=default;" edge="1" parent="1" source="xRU164SG1fYUXlXQwHpl-23" target="xRU164SG1fYUXlXQwHpl-27">
          <mxGeometry width="50" height="50" relative="1" as="geometry">
            <mxPoint x="310" y="1060" as="sourcePoint" />
            <mxPoint x="360" y="1010" as="targetPoint" />
            <Array as="points">
              <mxPoint x="730" y="1220" />
            </Array>
          </mxGeometry>
        </mxCell>
        <mxCell id="xRU164SG1fYUXlXQwHpl-27" value="项目信息" style="whiteSpace=wrap;html=1;rounded=1;labelBackgroundColor=none;" vertex="1" parent="1">
          <mxGeometry x="100" y="1190" width="120" height="60" as="geometry" />
        </mxCell>
        <mxCell id="xRU164SG1fYUXlXQwHpl-32" value="" style="edgeStyle=orthogonalEdgeStyle;rounded=0;orthogonalLoop=1;jettySize=auto;html=1;labelBackgroundColor=none;fontColor=default;" edge="1" parent="1" source="xRU164SG1fYUXlXQwHpl-29" target="xRU164SG1fYUXlXQwHpl-31">
          <mxGeometry relative="1" as="geometry" />
        </mxCell>
        <mxCell id="xRU164SG1fYUXlXQwHpl-34" value="" style="edgeStyle=orthogonalEdgeStyle;rounded=0;orthogonalLoop=1;jettySize=auto;html=1;labelBackgroundColor=none;fontColor=default;" edge="1" parent="1" source="xRU164SG1fYUXlXQwHpl-29" target="xRU164SG1fYUXlXQwHpl-33">
          <mxGeometry relative="1" as="geometry" />
        </mxCell>
        <mxCell id="xRU164SG1fYUXlXQwHpl-29" value="教师/教务/评委" style="whiteSpace=wrap;html=1;rounded=1;labelBackgroundColor=none;" vertex="1" parent="1">
          <mxGeometry x="-260" y="590" width="120" height="60" as="geometry" />
        </mxCell>
        <mxCell id="xRU164SG1fYUXlXQwHpl-31" value="管理" style="rhombus;whiteSpace=wrap;html=1;rounded=1;labelBackgroundColor=none;" vertex="1" parent="1">
          <mxGeometry x="-240" y="720" width="80" height="80" as="geometry" />
        </mxCell>
        <mxCell id="xRU164SG1fYUXlXQwHpl-33" value="管理" style="rhombus;whiteSpace=wrap;html=1;rounded=1;labelBackgroundColor=none;" vertex="1" parent="1">
          <mxGeometry x="-240" y="440" width="80" height="80" as="geometry" />
        </mxCell>
        <mxCell id="xRU164SG1fYUXlXQwHpl-35" value="管理" style="rhombus;whiteSpace=wrap;html=1;rounded=1;labelBackgroundColor=none;" vertex="1" parent="1">
          <mxGeometry x="-425" y="720" width="80" height="80" as="geometry" />
        </mxCell>
        <mxCell id="xRU164SG1fYUXlXQwHpl-36" value="" style="endArrow=classic;html=1;rounded=0;entryX=0.5;entryY=0;entryDx=0;entryDy=0;exitX=0;exitY=0.5;exitDx=0;exitDy=0;labelBackgroundColor=none;fontColor=default;" edge="1" parent="1" source="xRU164SG1fYUXlXQwHpl-29" target="xRU164SG1fYUXlXQwHpl-35">
          <mxGeometry width="50" height="50" relative="1" as="geometry">
            <mxPoint x="-260" y="630" as="sourcePoint" />
            <mxPoint x="-210" y="580" as="targetPoint" />
            <Array as="points">
              <mxPoint x="-385" y="620" />
            </Array>
          </mxGeometry>
        </mxCell>
        <mxCell id="xRU164SG1fYUXlXQwHpl-37" value="" style="endArrow=classic;html=1;rounded=0;exitX=0;exitY=0.5;exitDx=0;exitDy=0;labelBackgroundColor=none;fontColor=default;" edge="1" parent="1" source="xRU164SG1fYUXlXQwHpl-27">
          <mxGeometry width="50" height="50" relative="1" as="geometry">
            <mxPoint x="-30" y="1090" as="sourcePoint" />
            <mxPoint x="-380" y="800" as="targetPoint" />
            <Array as="points">
              <mxPoint x="-380" y="1220" />
            </Array>
          </mxGeometry>
        </mxCell>
        <mxCell id="xRU164SG1fYUXlXQwHpl-38" value="" style="endArrow=classic;html=1;rounded=0;entryX=0.5;entryY=1;entryDx=0;entryDy=0;labelBackgroundColor=none;fontColor=default;" edge="1" parent="1" target="xRU164SG1fYUXlXQwHpl-31">
          <mxGeometry width="50" height="50" relative="1" as="geometry">
            <mxPoint x="100" y="920" as="sourcePoint" />
            <mxPoint x="150" y="870" as="targetPoint" />
            <Array as="points">
              <mxPoint x="-200" y="920" />
            </Array>
          </mxGeometry>
        </mxCell>
        <mxCell id="xRU164SG1fYUXlXQwHpl-39" value="" style="endArrow=classic;html=1;rounded=0;entryX=0.5;entryY=0;entryDx=0;entryDy=0;exitX=0;exitY=0.5;exitDx=0;exitDy=0;labelBackgroundColor=none;fontColor=default;" edge="1" parent="1" source="xRU164SG1fYUXlXQwHpl-1" target="xRU164SG1fYUXlXQwHpl-33">
          <mxGeometry width="50" height="50" relative="1" as="geometry">
            <mxPoint x="100" y="330" as="sourcePoint" />
            <mxPoint x="150" y="280" as="targetPoint" />
            <Array as="points">
              <mxPoint x="-200" y="320" />
            </Array>
          </mxGeometry>
        </mxCell>
        <mxCell id="xRU164SG1fYUXlXQwHpl-40" value="n" style="text;html=1;align=center;verticalAlign=middle;resizable=0;points=[];autosize=1;strokeColor=none;fillColor=none;labelBackgroundColor=none;" vertex="1" parent="1">
          <mxGeometry x="-55" y="320" width="30" height="30" as="geometry" />
        </mxCell>
        <mxCell id="xRU164SG1fYUXlXQwHpl-41" value="1" style="text;html=1;align=center;verticalAlign=middle;resizable=0;points=[];autosize=1;strokeColor=none;fillColor=none;labelBackgroundColor=none;" vertex="1" parent="1">
          <mxGeometry x="-205" y="548" width="30" height="30" as="geometry" />
        </mxCell>
        <mxCell id="xRU164SG1fYUXlXQwHpl-42" value="n" style="text;html=1;align=center;verticalAlign=middle;resizable=0;points=[];autosize=1;strokeColor=none;fillColor=none;labelBackgroundColor=none;" vertex="1" parent="1">
          <mxGeometry x="-120" y="590" width="30" height="30" as="geometry" />
        </mxCell>
        <mxCell id="xRU164SG1fYUXlXQwHpl-43" value="1" style="text;html=1;align=center;verticalAlign=middle;resizable=0;points=[];autosize=1;strokeColor=none;fillColor=none;labelBackgroundColor=none;" vertex="1" parent="1">
          <mxGeometry x="40" y="590" width="30" height="30" as="geometry" />
        </mxCell>
        <mxCell id="xRU164SG1fYUXlXQwHpl-44" value="1" style="text;html=1;align=center;verticalAlign=middle;resizable=0;points=[];autosize=1;strokeColor=none;fillColor=none;labelBackgroundColor=none;" vertex="1" parent="1">
          <mxGeometry x="160" y="530" width="30" height="30" as="geometry" />
        </mxCell>
        <mxCell id="xRU164SG1fYUXlXQwHpl-45" value="n" style="text;html=1;align=center;verticalAlign=middle;resizable=0;points=[];autosize=1;strokeColor=none;fillColor=none;labelBackgroundColor=none;" vertex="1" parent="1">
          <mxGeometry x="160" y="370" width="30" height="30" as="geometry" />
        </mxCell>
        <mxCell id="xRU164SG1fYUXlXQwHpl-46" value="n" style="text;html=1;align=center;verticalAlign=middle;resizable=0;points=[];autosize=1;strokeColor=none;fillColor=none;labelBackgroundColor=none;" vertex="1" parent="1">
          <mxGeometry x="395" y="320" width="30" height="30" as="geometry" />
        </mxCell>
        <mxCell id="xRU164SG1fYUXlXQwHpl-47" value="1" style="text;html=1;align=center;verticalAlign=middle;resizable=0;points=[];autosize=1;strokeColor=none;fillColor=none;labelBackgroundColor=none;" vertex="1" parent="1">
          <mxGeometry x="250" y="590" width="30" height="30" as="geometry" />
        </mxCell>
        <mxCell id="xRU164SG1fYUXlXQwHpl-48" value="1" style="text;html=1;align=center;verticalAlign=middle;resizable=0;points=[];autosize=1;strokeColor=none;fillColor=none;labelBackgroundColor=none;" vertex="1" parent="1">
          <mxGeometry x="160" y="670" width="30" height="30" as="geometry" />
        </mxCell>
        <mxCell id="xRU164SG1fYUXlXQwHpl-49" value="n" style="text;html=1;align=center;verticalAlign=middle;resizable=0;points=[];autosize=1;strokeColor=none;fillColor=none;labelBackgroundColor=none;" vertex="1" parent="1">
          <mxGeometry x="160" y="830" width="30" height="30" as="geometry" />
        </mxCell>
        <mxCell id="xRU164SG1fYUXlXQwHpl-50" value="n" style="text;html=1;align=center;verticalAlign=middle;resizable=0;points=[];autosize=1;strokeColor=none;fillColor=none;labelBackgroundColor=none;" vertex="1" parent="1">
          <mxGeometry x="-70" y="890" width="30" height="30" as="geometry" />
        </mxCell>
        <mxCell id="xRU164SG1fYUXlXQwHpl-52" value="1" style="text;html=1;align=center;verticalAlign=middle;resizable=0;points=[];autosize=1;strokeColor=none;fillColor=none;labelBackgroundColor=none;" vertex="1" parent="1">
          <mxGeometry x="-205" y="670" width="30" height="30" as="geometry" />
        </mxCell>
        <mxCell id="xRU164SG1fYUXlXQwHpl-53" value="1" style="text;html=1;align=center;verticalAlign=middle;resizable=0;points=[];autosize=1;strokeColor=none;fillColor=none;labelBackgroundColor=none;" vertex="1" parent="1">
          <mxGeometry x="-380" y="620" width="30" height="30" as="geometry" />
        </mxCell>
        <mxCell id="xRU164SG1fYUXlXQwHpl-54" value="n" style="text;html=1;align=center;verticalAlign=middle;resizable=0;points=[];autosize=1;strokeColor=none;fillColor=none;labelBackgroundColor=none;" vertex="1" parent="1">
          <mxGeometry x="-380" y="1040" width="30" height="30" as="geometry" />
        </mxCell>
        <mxCell id="xRU164SG1fYUXlXQwHpl-55" value="n" style="text;html=1;align=center;verticalAlign=middle;resizable=0;points=[];autosize=1;strokeColor=none;fillColor=none;labelBackgroundColor=none;" vertex="1" parent="1">
          <mxGeometry x="160" y="1120" width="30" height="30" as="geometry" />
        </mxCell>
        <mxCell id="xRU164SG1fYUXlXQwHpl-56" value="n" style="text;html=1;align=center;verticalAlign=middle;resizable=0;points=[];autosize=1;strokeColor=none;fillColor=none;labelBackgroundColor=none;" vertex="1" parent="1">
          <mxGeometry x="410" y="890" width="30" height="30" as="geometry" />
        </mxCell>
        <mxCell id="xRU164SG1fYUXlXQwHpl-57" value="1" style="text;html=1;align=center;verticalAlign=middle;resizable=0;points=[];autosize=1;strokeColor=none;fillColor=none;labelBackgroundColor=none;" vertex="1" parent="1">
          <mxGeometry x="160" y="960" width="30" height="30" as="geometry" />
        </mxCell>
        <mxCell id="xRU164SG1fYUXlXQwHpl-58" value="n" style="text;html=1;align=center;verticalAlign=middle;resizable=0;points=[];autosize=1;strokeColor=none;fillColor=none;labelBackgroundColor=none;" vertex="1" parent="1">
          <mxGeometry x="700" y="1020" width="30" height="30" as="geometry" />
        </mxCell>
        <mxCell id="xRU164SG1fYUXlXQwHpl-59" value="n" style="text;html=1;align=center;verticalAlign=middle;resizable=0;points=[];autosize=1;strokeColor=none;fillColor=none;labelBackgroundColor=none;" vertex="1" parent="1">
          <mxGeometry x="520" y="660" width="30" height="30" as="geometry" />
        </mxCell>
        <mxCell id="xRU164SG1fYUXlXQwHpl-60" value="n" style="text;html=1;align=center;verticalAlign=middle;resizable=0;points=[];autosize=1;strokeColor=none;fillColor=none;labelBackgroundColor=none;" vertex="1" parent="1">
          <mxGeometry x="425" y="590" width="30" height="30" as="geometry" />
        </mxCell>
        <mxCell id="xRU164SG1fYUXlXQwHpl-61" value="1" style="text;html=1;align=center;verticalAlign=middle;resizable=0;points=[];autosize=1;strokeColor=none;fillColor=none;labelBackgroundColor=none;" vertex="1" parent="1">
          <mxGeometry x="650" y="590" width="30" height="30" as="geometry" />
        </mxCell>
        <mxCell id="xRU164SG1fYUXlXQwHpl-62" value="1" style="text;html=1;align=center;verticalAlign=middle;resizable=0;points=[];autosize=1;strokeColor=none;fillColor=none;labelBackgroundColor=none;" vertex="1" parent="1">
          <mxGeometry x="520" y="540" width="30" height="30" as="geometry" />
        </mxCell>
      </root>
    </mxGraphModel>
  </diagram>
</mxfile>
